<?xml version="1.0" encoding="utf-8"?>
<!-- Generator: Adobe Illustrator 15.0.0, SVG Export Plug-In . SVG Version: 6.00 Build 0)  -->
<!DOCTYPE svg PUBLIC "-//W3C//DTD SVG 1.1//EN" "http://www.w3.org/Graphics/SVG/1.1/DTD/svg11.dtd">
<svg version="1.1" id="Layer_1" xmlns="http://www.w3.org/2000/svg" xmlns:xlink="http://www.w3.org/1999/xlink" x="0px" y="0px"
	 width="141.732px" height="141.732px" viewBox="70.966 354.096 141.732 141.732"
	 enable-background="new 70.966 354.096 141.732 141.732" xml:space="preserve">
<path fill="#6DBE45" d="M140.104,355.096c1.174,0,2.35,0,3.524,0c16.448,0.634,28.761,5.849,38.936,13.091
	c10.147,7.221,18.154,16.817,23.328,28.614c2.638,6.013,4.599,12.79,5.455,20.56c0.892,8.085,0.298,16.453-1.426,23.746
	c-3.28,13.876-9.935,24.619-18.629,33.315c-8.697,8.697-19.48,15.416-33.398,18.628c-7.351,1.696-15.625,2.308-23.748,1.428
	c-7.713-0.838-14.476-2.825-20.475-5.456c-11.767-5.159-21.479-13.21-28.699-23.328c-7.248-10.155-12.307-22.594-13.006-38.935
	c0-1.175,0-2.35,0-3.525c0.19-5.465,0.95-10.479,2.098-15.104c3.367-13.566,9.965-24.062,18.46-32.559
	C103.856,364.241,118.939,356.103,140.104,355.096z M115.265,390.591c-2.469,2.47-4.357,4.356-6.713,6.714
	c-1.134,1.133-2.468,2.204-3.189,3.524c-2.134,3.907-0.213,10.797,1.09,14.601c1.315,3.834,3.01,7.124,4.783,10.069
	c3.822,6.351,8.064,11.338,13.259,16.53c8.019,8.021,15.254,13.856,26.433,18.127c3.321,1.268,8.219,2.795,12.587,2.181
	c3.167-0.443,4.477-2.378,6.293-4.195c2.325-2.324,4.182-4.181,6.629-6.63c0.983-0.981,2.604-2.129,2.853-3.775
	c0.417-2.76-2.068-3.802-3.86-4.867c-3.342-1.988-6.493-3.733-9.65-5.621c-1.724-1.031-3.295-2.371-4.951-2.686
	c-3.574-0.682-4.733,1.544-6.461,3.271c-0.814,0.814-2.196,2.85-3.356,2.938c-1.388,0.104-3.251-0.969-4.532-1.678
	c-4.079-2.262-7.203-5.189-10.321-8.309c-3.016-3.015-6.141-6.273-8.308-10.321c-0.628-1.174-1.804-3.303-1.678-4.615
	c0.11-1.146,2.071-2.489,2.77-3.188c0.95-0.95,2.237-2.079,2.685-3.356c0.97-2.765-0.982-4.834-2.098-6.966
	c-1.77-3.381-3.288-6.396-5.035-9.732c-1.065-2.038-2.244-5.163-5.035-4.951C117.589,387.798,116.313,389.544,115.265,390.591z"/>
</svg>
